# xmcd CD database file
#
# Track frame offsets:
#	150
#	10707
#	26445
#	42815
#	56315
#	70582
#	87565
#	100180
#	114582
#	134675
#	153040
#	169615
#	182267
#
# Disc length: 2665 seconds
#
# Revision: 0
# Processed by: cddbd v1.4PL0 Copyright (c) Steve Scherf et al.
# Submitted via: Feurio! 1.65 - http://www.feurio.com
#
DISCID=930a670d
DTITLE=Ron Hacker and The Hacksaws - No Pretty Songs
DYEAR=1994
DGENRE=blues
TTITLE0=I Do Not Dance With Short Girls
TTITLE1=Howlin' For My Darlin'
TTITLE2=No Place To Go
TTITLE3=Baby Please Don't Go
TTITLE4=If You See My Baby
TTITLE5=I Ask Sweet Momma
TTITLE6=Two Women
TTITLE7=Takin' Care Of Business
TTITLE8=House Rent Blues
TTITLE9=Rollin' Stone
TTITLE10=Goin' To Brownsville
TTITLE11=Snake Dancin'
TTITLE12=Blues For Yank
EXTD=
EXTT0=
EXTT1=
EXTT2=
EXTT3=
EXTT4=
EXTT5=
EXTT6=
EXTT7=
EXTT8=
EXTT9=
EXTT10=
EXTT11=
EXTT12=
PLAYORDER=
